<?xml version="1.0" encoding="utf-8"?>
<!-- Generator: Adobe Illustrator 16.0.0, SVG Export Plug-In . SVG Version: 6.00 Build 0)  -->
<!DOCTYPE svg PUBLIC "-//W3C//DTD SVG 1.1//EN" "http://www.w3.org/Graphics/SVG/1.1/DTD/svg11.dtd">
<svg version="1.1" id="Слой_1" xmlns="http://www.w3.org/2000/svg" xmlns:xlink="http://www.w3.org/1999/xlink" x="0px" y="0px"
	 width="1036px" height="1612px" viewBox="90 -102 1036 1612" enable-background="new 90 -102 1036 1612" xml:space="preserve">
<path fill="#ED4949" d="M1107,659L365-83c-12.667-12.667-27.667-19-45-19s-32.333,6.333-45,19L109,83
	c-12.667,12.666-19,27.666-19,45c0,17.333,6.333,32.333,19,45l531,531l-531,531c-12.667,12.667-19,27.667-19,45s6.333,32.333,19,45
	l166,166c12.667,12.667,27.667,19,45,19s32.333-6.333,45-19l742-742c12.667-12.667,19-27.667,19-45S1119.667,671.667,1107,659z"/>
</svg>
